ISO-10303-21;
HEADER;
/* Generated by software containing ST-Developer
 * from STEP Tools, Inc. (www.steptools.com) 
 */

FILE_DESCRIPTION(
/* description */ (''),
/* implementation_level */ '2;1');

FILE_NAME(
/* name */ 'base.step',
/* time_stamp */ '2026-08-05T22:16:10+05:30',
/* author */ (''),
/* organization */ (''),
/* preprocessor_version */ 'ST-DEVELOPER v20.1',
/* originating_system */ 'Autodesk Translation Framework v15.8.0.0',
/* authorisation */ '');

FILE_SCHEMA (('AUTOMOTIVE_DESIGN { 1 0 10303 214 3 1 1 }'));
ENDSEC;

DATA;
#10=MECHANICAL_DESIGN_GEOMETRIC_PRESENTATION_REPRESENTATION('',(#13),#647);
#11=SHAPE_REPRESENTATION_RELATIONSHIP('SRR','None',#654,#12);
#12=ADVANCED_BREP_SHAPE_REPRESENTATION('',(#14),#646);
#13=STYLED_ITEM('',(#663),#14);
#14=MANIFOLD_SOLID_BREP('Body1',#387);
#15=FACE_BOUND('',#88,.T.);
#16=FACE_BOUND('',#89,.T.);
#17=FACE_BOUND('',#90,.T.);
#18=FACE_BOUND('',#91,.T.);
#19=FACE_BOUND('',#92,.T.);
#20=FACE_BOUND('',#93,.T.);
#21=PLANE('',#404);
#22=PLANE('',#408);
#23=PLANE('',#412);
#24=PLANE('',#413);
#25=PLANE('',#414);
#26=PLANE('',#415);
#27=PLANE('',#416);
#28=PLANE('',#417);
#29=PLANE('',#418);
#30=PLANE('',#419);
#31=PLANE('',#420);
#32=PLANE('',#421);
#33=PLANE('',#422);
#34=PLANE('',#423);
#35=PLANE('',#424);
#36=PLANE('',#425);
#37=PLANE('',#426);
#38=PLANE('',#427);
#39=PLANE('',#431);
#40=PLANE('',#432);
#41=FACE_OUTER_BOUND('',#65,.T.);
#42=FACE_OUTER_BOUND('',#66,.T.);
#43=FACE_OUTER_BOUND('',#67,.T.);
#44=FACE_OUTER_BOUND('',#68,.T.);
#45=FACE_OUTER_BOUND('',#69,.T.);
#46=FACE_OUTER_BOUND('',#70,.T.);
#47=FACE_OUTER_BOUND('',#71,.T.);
#48=FACE_OUTER_BOUND('',#72,.T.);
#49=FACE_OUTER_BOUND('',#73,.T.);
#50=FACE_OUTER_BOUND('',#74,.T.);
#51=FACE_OUTER_BOUND('',#75,.T.);
#52=FACE_OUTER_BOUND('',#76,.T.);
#53=FACE_OUTER_BOUND('',#77,.T.);
#54=FACE_OUTER_BOUND('',#78,.T.);
#55=FACE_OUTER_BOUND('',#79,.T.);
#56=FACE_OUTER_BOUND('',#80,.T.);
#57=FACE_OUTER_BOUND('',#81,.T.);
#58=FACE_OUTER_BOUND('',#82,.T.);
#59=FACE_OUTER_BOUND('',#83,.T.);
#60=FACE_OUTER_BOUND('',#84,.T.);
#61=FACE_OUTER_BOUND('',#85,.T.);
#62=FACE_OUTER_BOUND('',#86,.T.);
#63=FACE_OUTER_BOUND('',#87,.T.);
#64=FACE_OUTER_BOUND('',#94,.T.);
#65=EDGE_LOOP('',(#263,#264,#265,#266));
#66=EDGE_LOOP('',(#267));
#67=EDGE_LOOP('',(#268,#269,#270,#271));
#68=EDGE_LOOP('',(#272));
#69=EDGE_LOOP('',(#273,#274,#275,#276));
#70=EDGE_LOOP('',(#277));
#71=EDGE_LOOP('',(#278,#279,#280,#281));
#72=EDGE_LOOP('',(#282,#283,#284,#285));
#73=EDGE_LOOP('',(#286,#287,#288,#289));
#74=EDGE_LOOP('',(#290,#291,#292,#293));
#75=EDGE_LOOP('',(#294,#295,#296,#297));
#76=EDGE_LOOP('',(#298,#299,#300,#301));
#77=EDGE_LOOP('',(#302,#303,#304,#305));
#78=EDGE_LOOP('',(#306,#307,#308,#309));
#79=EDGE_LOOP('',(#310,#311,#312,#313));
#80=EDGE_LOOP('',(#314,#315,#316,#317));
#81=EDGE_LOOP('',(#318,#319,#320,#321));
#82=EDGE_LOOP('',(#322,#323,#324,#325));
#83=EDGE_LOOP('',(#326,#327,#328,#329));
#84=EDGE_LOOP('',(#330,#331,#332,#333));
#85=EDGE_LOOP('',(#334,#335,#336,#337));
#86=EDGE_LOOP('',(#338,#339,#340,#341));
#87=EDGE_LOOP('',(#342));
#88=EDGE_LOOP('',(#343));
#89=EDGE_LOOP('',(#344));
#90=EDGE_LOOP('',(#345));
#91=EDGE_LOOP('',(#346,#347,#348,#349));
#92=EDGE_LOOP('',(#350,#351,#352,#353));
#93=EDGE_LOOP('',(#354,#355,#356,#357));
#94=EDGE_LOOP('',(#358));
#95=LINE('',#544,#135);
#96=LINE('',#551,#136);
#97=LINE('',#558,#137);
#98=LINE('',#564,#138);
#99=LINE('',#566,#139);
#100=LINE('',#568,#140);
#101=LINE('',#569,#141);
#102=LINE('',#572,#142);
#103=LINE('',#574,#143);
#104=LINE('',#575,#144);
#105=LINE('',#578,#145);
#106=LINE('',#579,#146);
#107=LINE('',#583,#147);
#108=LINE('',#585,#148);
#109=LINE('',#587,#149);
#110=LINE('',#588,#150);
#111=LINE('',#591,#151);
#112=LINE('',#593,#152);
#113=LINE('',#594,#153);
#114=LINE('',#597,#154);
#115=LINE('',#598,#155);
#116=LINE('',#602,#156);
#117=LINE('',#604,#157);
#118=LINE('',#606,#158);
#119=LINE('',#607,#159);
#120=LINE('',#610,#160);
#121=LINE('',#612,#161);
#122=LINE('',#613,#162);
#123=LINE('',#616,#163);
#124=LINE('',#617,#164);
#125=LINE('',#620,#165);
#126=LINE('',#621,#166);
#127=LINE('',#623,#167);
#128=LINE('',#626,#168);
#129=LINE('',#627,#169);
#130=LINE('',#629,#170);
#131=LINE('',#632,#171);
#132=LINE('',#633,#172);
#133=LINE('',#635,#173);
#134=LINE('',#640,#174);
#135=VECTOR('',#439,2.35);
#136=VECTOR('',#448,2.35);
#137=VECTOR('',#457,2.35);
#138=VECTOR('',#464,10.);
#139=VECTOR('',#465,10.);
#140=VECTOR('',#466,10.);
#141=VECTOR('',#467,10.);
#142=VECTOR('',#470,10.);
#143=VECTOR('',#471,10.);
#144=VECTOR('',#472,10.);
#145=VECTOR('',#475,10.);
#146=VECTOR('',#476,10.);
#147=VECTOR('',#479,10.);
#148=VECTOR('',#480,10.);
#149=VECTOR('',#481,10.);
#150=VECTOR('',#482,10.);
#151=VECTOR('',#485,10.);
#152=VECTOR('',#486,10.);
#153=VECTOR('',#487,10.);
#154=VECTOR('',#490,10.);
#155=VECTOR('',#491,10.);
#156=VECTOR('',#494,10.);
#157=VECTOR('',#495,10.);
#158=VECTOR('',#496,10.);
#159=VECTOR('',#497,10.);
#160=VECTOR('',#500,10.);
#161=VECTOR('',#501,10.);
#162=VECTOR('',#502,10.);
#163=VECTOR('',#505,10.);
#164=VECTOR('',#506,10.);
#165=VECTOR('',#509,10.);
#166=VECTOR('',#510,10.);
#167=VECTOR('',#513,10.);
#168=VECTOR('',#516,10.);
#169=VECTOR('',#517,10.);
#170=VECTOR('',#520,10.);
#171=VECTOR('',#523,10.);
#172=VECTOR('',#524,10.);
#173=VECTOR('',#527,10.);
#174=VECTOR('',#532,48.);
#175=CIRCLE('',#402,2.35);
#176=CIRCLE('',#403,2.35);
#177=CIRCLE('',#406,2.35);
#178=CIRCLE('',#407,2.35);
#179=CIRCLE('',#410,2.35);
#180=CIRCLE('',#411,2.35);
#181=CIRCLE('',#429,48.);
#182=CIRCLE('',#430,48.);
#183=VERTEX_POINT('',#541);
#184=VERTEX_POINT('',#543);
#185=VERTEX_POINT('',#548);
#186=VERTEX_POINT('',#550);
#187=VERTEX_POINT('',#555);
#188=VERTEX_POINT('',#557);
#189=VERTEX_POINT('',#562);
#190=VERTEX_POINT('',#563);
#191=VERTEX_POINT('',#565);
#192=VERTEX_POINT('',#567);
#193=VERTEX_POINT('',#571);
#194=VERTEX_POINT('',#573);
#195=VERTEX_POINT('',#577);
#196=VERTEX_POINT('',#581);
#197=VERTEX_POINT('',#582);
#198=VERTEX_POINT('',#584);
#199=VERTEX_POINT('',#586);
#200=VERTEX_POINT('',#590);
#201=VERTEX_POINT('',#592);
#202=VERTEX_POINT('',#596);
#203=VERTEX_POINT('',#600);
#204=VERTEX_POINT('',#601);
#205=VERTEX_POINT('',#603);
#206=VERTEX_POINT('',#605);
#207=VERTEX_POINT('',#609);
#208=VERTEX_POINT('',#611);
#209=VERTEX_POINT('',#615);
#210=VERTEX_POINT('',#619);
#211=VERTEX_POINT('',#625);
#212=VERTEX_POINT('',#631);
#213=VERTEX_POINT('',#637);
#214=VERTEX_POINT('',#639);
#215=EDGE_CURVE('',#183,#183,#175,.T.);
#216=EDGE_CURVE('',#183,#184,#95,.T.);
#217=EDGE_CURVE('',#184,#184,#176,.T.);
#218=EDGE_CURVE('',#185,#185,#177,.T.);
#219=EDGE_CURVE('',#185,#186,#96,.T.);
#220=EDGE_CURVE('',#186,#186,#178,.T.);
#221=EDGE_CURVE('',#187,#187,#179,.T.);
#222=EDGE_CURVE('',#187,#188,#97,.T.);
#223=EDGE_CURVE('',#188,#188,#180,.T.);
#224=EDGE_CURVE('',#189,#190,#98,.T.);
#225=EDGE_CURVE('',#191,#189,#99,.T.);
#226=EDGE_CURVE('',#192,#191,#100,.T.);
#227=EDGE_CURVE('',#190,#192,#101,.T.);
#228=EDGE_CURVE('',#191,#193,#102,.T.);
#229=EDGE_CURVE('',#194,#193,#103,.T.);
#230=EDGE_CURVE('',#192,#194,#104,.T.);
#231=EDGE_CURVE('',#189,#195,#105,.T.);
#232=EDGE_CURVE('',#193,#195,#106,.T.);
#233=EDGE_CURVE('',#196,#197,#107,.T.);
#234=EDGE_CURVE('',#198,#196,#108,.T.);
#235=EDGE_CURVE('',#199,#198,#109,.T.);
#236=EDGE_CURVE('',#197,#199,#110,.T.);
#237=EDGE_CURVE('',#198,#200,#111,.T.);
#238=EDGE_CURVE('',#201,#200,#112,.T.);
#239=EDGE_CURVE('',#199,#201,#113,.T.);
#240=EDGE_CURVE('',#196,#202,#114,.T.);
#241=EDGE_CURVE('',#200,#202,#115,.T.);
#242=EDGE_CURVE('',#203,#204,#116,.T.);
#243=EDGE_CURVE('',#205,#203,#117,.T.);
#244=EDGE_CURVE('',#206,#205,#118,.T.);
#245=EDGE_CURVE('',#204,#206,#119,.T.);
#246=EDGE_CURVE('',#205,#207,#120,.T.);
#247=EDGE_CURVE('',#208,#207,#121,.T.);
#248=EDGE_CURVE('',#206,#208,#122,.T.);
#249=EDGE_CURVE('',#203,#209,#123,.T.);
#250=EDGE_CURVE('',#207,#209,#124,.T.);
#251=EDGE_CURVE('',#210,#194,#125,.T.);
#252=EDGE_CURVE('',#190,#210,#126,.T.);
#253=EDGE_CURVE('',#195,#210,#127,.T.);
#254=EDGE_CURVE('',#211,#201,#128,.T.);
#255=EDGE_CURVE('',#197,#211,#129,.T.);
#256=EDGE_CURVE('',#202,#211,#130,.T.);
#257=EDGE_CURVE('',#212,#208,#131,.T.);
#258=EDGE_CURVE('',#204,#212,#132,.T.);
#259=EDGE_CURVE('',#209,#212,#133,.T.);
#260=EDGE_CURVE('',#213,#213,#181,.T.);
#261=EDGE_CURVE('',#213,#214,#134,.T.);
#262=EDGE_CURVE('',#214,#214,#182,.T.);
#263=ORIENTED_EDGE('',*,*,#215,.F.);
#264=ORIENTED_EDGE('',*,*,#216,.T.);
#265=ORIENTED_EDGE('',*,*,#217,.F.);
#266=ORIENTED_EDGE('',*,*,#216,.F.);
#267=ORIENTED_EDGE('',*,*,#215,.T.);
#268=ORIENTED_EDGE('',*,*,#218,.F.);
#269=ORIENTED_EDGE('',*,*,#219,.T.);
#270=ORIENTED_EDGE('',*,*,#220,.F.);
#271=ORIENTED_EDGE('',*,*,#219,.F.);
#272=ORIENTED_EDGE('',*,*,#218,.T.);
#273=ORIENTED_EDGE('',*,*,#221,.F.);
#274=ORIENTED_EDGE('',*,*,#222,.T.);
#275=ORIENTED_EDGE('',*,*,#223,.F.);
#276=ORIENTED_EDGE('',*,*,#222,.F.);
#277=ORIENTED_EDGE('',*,*,#221,.T.);
#278=ORIENTED_EDGE('',*,*,#224,.F.);
#279=ORIENTED_EDGE('',*,*,#225,.F.);
#280=ORIENTED_EDGE('',*,*,#226,.F.);
#281=ORIENTED_EDGE('',*,*,#227,.F.);
#282=ORIENTED_EDGE('',*,*,#226,.T.);
#283=ORIENTED_EDGE('',*,*,#228,.T.);
#284=ORIENTED_EDGE('',*,*,#229,.F.);
#285=ORIENTED_EDGE('',*,*,#230,.F.);
#286=ORIENTED_EDGE('',*,*,#225,.T.);
#287=ORIENTED_EDGE('',*,*,#231,.T.);
#288=ORIENTED_EDGE('',*,*,#232,.F.);
#289=ORIENTED_EDGE('',*,*,#228,.F.);
#290=ORIENTED_EDGE('',*,*,#233,.F.);
#291=ORIENTED_EDGE('',*,*,#234,.F.);
#292=ORIENTED_EDGE('',*,*,#235,.F.);
#293=ORIENTED_EDGE('',*,*,#236,.F.);
#294=ORIENTED_EDGE('',*,*,#235,.T.);
#295=ORIENTED_EDGE('',*,*,#237,.T.);
#296=ORIENTED_EDGE('',*,*,#238,.F.);
#297=ORIENTED_EDGE('',*,*,#239,.F.);
#298=ORIENTED_EDGE('',*,*,#234,.T.);
#299=ORIENTED_EDGE('',*,*,#240,.T.);
#300=ORIENTED_EDGE('',*,*,#241,.F.);
#301=ORIENTED_EDGE('',*,*,#237,.F.);
#302=ORIENTED_EDGE('',*,*,#242,.F.);
#303=ORIENTED_EDGE('',*,*,#243,.F.);
#304=ORIENTED_EDGE('',*,*,#244,.F.);
#305=ORIENTED_EDGE('',*,*,#245,.F.);
#306=ORIENTED_EDGE('',*,*,#244,.T.);
#307=ORIENTED_EDGE('',*,*,#246,.T.);
#308=ORIENTED_EDGE('',*,*,#247,.F.);
#309=ORIENTED_EDGE('',*,*,#248,.F.);
#310=ORIENTED_EDGE('',*,*,#243,.T.);
#311=ORIENTED_EDGE('',*,*,#249,.T.);
#312=ORIENTED_EDGE('',*,*,#250,.F.);
#313=ORIENTED_EDGE('',*,*,#246,.F.);
#314=ORIENTED_EDGE('',*,*,#227,.T.);
#315=ORIENTED_EDGE('',*,*,#230,.T.);
#316=ORIENTED_EDGE('',*,*,#251,.F.);
#317=ORIENTED_EDGE('',*,*,#252,.F.);
#318=ORIENTED_EDGE('',*,*,#224,.T.);
#319=ORIENTED_EDGE('',*,*,#252,.T.);
#320=ORIENTED_EDGE('',*,*,#253,.F.);
#321=ORIENTED_EDGE('',*,*,#231,.F.);
#322=ORIENTED_EDGE('',*,*,#236,.T.);
#323=ORIENTED_EDGE('',*,*,#239,.T.);
#324=ORIENTED_EDGE('',*,*,#254,.F.);
#325=ORIENTED_EDGE('',*,*,#255,.F.);
#326=ORIENTED_EDGE('',*,*,#233,.T.);
#327=ORIENTED_EDGE('',*,*,#255,.T.);
#328=ORIENTED_EDGE('',*,*,#256,.F.);
#329=ORIENTED_EDGE('',*,*,#240,.F.);
#330=ORIENTED_EDGE('',*,*,#245,.T.);
#331=ORIENTED_EDGE('',*,*,#248,.T.);
#332=ORIENTED_EDGE('',*,*,#257,.F.);
#333=ORIENTED_EDGE('',*,*,#258,.F.);
#334=ORIENTED_EDGE('',*,*,#242,.T.);
#335=ORIENTED_EDGE('',*,*,#258,.T.);
#336=ORIENTED_EDGE('',*,*,#259,.F.);
#337=ORIENTED_EDGE('',*,*,#249,.F.);
#338=ORIENTED_EDGE('',*,*,#260,.F.);
#339=ORIENTED_EDGE('',*,*,#261,.T.);
#340=ORIENTED_EDGE('',*,*,#262,.T.);
#341=ORIENTED_EDGE('',*,*,#261,.F.);
#342=ORIENTED_EDGE('',*,*,#260,.T.);
#343=ORIENTED_EDGE('',*,*,#217,.T.);
#344=ORIENTED_EDGE('',*,*,#220,.T.);
#345=ORIENTED_EDGE('',*,*,#223,.T.);
#346=ORIENTED_EDGE('',*,*,#259,.T.);
#347=ORIENTED_EDGE('',*,*,#257,.T.);
#348=ORIENTED_EDGE('',*,*,#247,.T.);
#349=ORIENTED_EDGE('',*,*,#250,.T.);
#350=ORIENTED_EDGE('',*,*,#256,.T.);
#351=ORIENTED_EDGE('',*,*,#254,.T.);
#352=ORIENTED_EDGE('',*,*,#238,.T.);
#353=ORIENTED_EDGE('',*,*,#241,.T.);
#354=ORIENTED_EDGE('',*,*,#253,.T.);
#355=ORIENTED_EDGE('',*,*,#251,.T.);
#356=ORIENTED_EDGE('',*,*,#229,.T.);
#357=ORIENTED_EDGE('',*,*,#232,.T.);
#358=ORIENTED_EDGE('',*,*,#262,.F.);
#359=CYLINDRICAL_SURFACE('',#401,2.35);
#360=CYLINDRICAL_SURFACE('',#405,2.35);
#361=CYLINDRICAL_SURFACE('',#409,2.35);
#362=CYLINDRICAL_SURFACE('',#428,48.);
#363=ADVANCED_FACE('',(#41),#359,.T.);
#364=ADVANCED_FACE('',(#42),#21,.T.);
#365=ADVANCED_FACE('',(#43),#360,.T.);
#366=ADVANCED_FACE('',(#44),#22,.T.);
#367=ADVANCED_FACE('',(#45),#361,.T.);
#368=ADVANCED_FACE('',(#46),#23,.T.);
#369=ADVANCED_FACE('',(#47),#24,.T.);
#370=ADVANCED_FACE('',(#48),#25,.T.);
#371=ADVANCED_FACE('',(#49),#26,.T.);
#372=ADVANCED_FACE('',(#50),#27,.T.);
#373=ADVANCED_FACE('',(#51),#28,.T.);
#374=ADVANCED_FACE('',(#52),#29,.T.);
#375=ADVANCED_FACE('',(#53),#30,.T.);
#376=ADVANCED_FACE('',(#54),#31,.T.);
#377=ADVANCED_FACE('',(#55),#32,.T.);
#378=ADVANCED_FACE('',(#56),#33,.T.);
#379=ADVANCED_FACE('',(#57),#34,.T.);
#380=ADVANCED_FACE('',(#58),#35,.T.);
#381=ADVANCED_FACE('',(#59),#36,.T.);
#382=ADVANCED_FACE('',(#60),#37,.T.);
#383=ADVANCED_FACE('',(#61),#38,.T.);
#384=ADVANCED_FACE('',(#62),#362,.T.);
#385=ADVANCED_FACE('',(#63,#15,#16,#17,#18,#19,#20),#39,.T.);
#386=ADVANCED_FACE('',(#64),#40,.F.);
#387=CLOSED_SHELL('',(#363,#364,#365,#366,#367,#368,#369,#370,#371,#372,
#373,#374,#375,#376,#377,#378,#379,#380,#381,#382,#383,#384,#385,#386));
#388=DERIVED_UNIT_ELEMENT(#390,1.);
#389=DERIVED_UNIT_ELEMENT(#649,-3.);
#390=(
MASS_UNIT()
NAMED_UNIT(*)
SI_UNIT(.KILO.,.GRAM.)
);
#391=DERIVED_UNIT((#388,#389));
#392=MEASURE_REPRESENTATION_ITEM('density measure',
POSITIVE_RATIO_MEASURE(7850.),#391);
#393=PROPERTY_DEFINITION_REPRESENTATION(#398,#395);
#394=PROPERTY_DEFINITION_REPRESENTATION(#399,#396);
#395=REPRESENTATION('material name',(#397),#646);
#396=REPRESENTATION('density',(#392),#646);
#397=DESCRIPTIVE_REPRESENTATION_ITEM('Steel','Steel');
#398=PROPERTY_DEFINITION('material property','material name',#656);
#399=PROPERTY_DEFINITION('material property','density of part',#656);
#400=AXIS2_PLACEMENT_3D('',#539,#433,#434);
#401=AXIS2_PLACEMENT_3D('',#540,#435,#436);
#402=AXIS2_PLACEMENT_3D('',#542,#437,#438);
#403=AXIS2_PLACEMENT_3D('',#545,#440,#441);
#404=AXIS2_PLACEMENT_3D('',#546,#442,#443);
#405=AXIS2_PLACEMENT_3D('',#547,#444,#445);
#406=AXIS2_PLACEMENT_3D('',#549,#446,#447);
#407=AXIS2_PLACEMENT_3D('',#552,#449,#450);
#408=AXIS2_PLACEMENT_3D('',#553,#451,#452);
#409=AXIS2_PLACEMENT_3D('',#554,#453,#454);
#410=AXIS2_PLACEMENT_3D('',#556,#455,#456);
#411=AXIS2_PLACEMENT_3D('',#559,#458,#459);
#412=AXIS2_PLACEMENT_3D('',#560,#460,#461);
#413=AXIS2_PLACEMENT_3D('',#561,#462,#463);
#414=AXIS2_PLACEMENT_3D('',#570,#468,#469);
#415=AXIS2_PLACEMENT_3D('',#576,#473,#474);
#416=AXIS2_PLACEMENT_3D('',#580,#477,#478);
#417=AXIS2_PLACEMENT_3D('',#589,#483,#484);
#418=AXIS2_PLACEMENT_3D('',#595,#488,#489);
#419=AXIS2_PLACEMENT_3D('',#599,#492,#493);
#420=AXIS2_PLACEMENT_3D('',#608,#498,#499);
#421=AXIS2_PLACEMENT_3D('',#614,#503,#504);
#422=AXIS2_PLACEMENT_3D('',#618,#507,#508);
#423=AXIS2_PLACEMENT_3D('',#622,#511,#512);
#424=AXIS2_PLACEMENT_3D('',#624,#514,#515);
#425=AXIS2_PLACEMENT_3D('',#628,#518,#519);
#426=AXIS2_PLACEMENT_3D('',#630,#521,#522);
#427=AXIS2_PLACEMENT_3D('',#634,#525,#526);
#428=AXIS2_PLACEMENT_3D('',#636,#528,#529);
#429=AXIS2_PLACEMENT_3D('',#638,#530,#531);
#430=AXIS2_PLACEMENT_3D('',#641,#533,#534);
#431=AXIS2_PLACEMENT_3D('',#642,#535,#536);
#432=AXIS2_PLACEMENT_3D('',#643,#537,#538);
#433=DIRECTION('axis',(0.,0.,1.));
#434=DIRECTION('refdir',(1.,0.,0.));
#435=DIRECTION('center_axis',(0.,1.,0.));
#436=DIRECTION('ref_axis',(-1.,0.,0.));
#437=DIRECTION('center_axis',(0.,1.,0.));
#438=DIRECTION('ref_axis',(-1.,0.,0.));
#439=DIRECTION('',(0.,-1.,0.));
#440=DIRECTION('center_axis',(0.,-1.,0.));
#441=DIRECTION('ref_axis',(-1.,0.,0.));
#442=DIRECTION('center_axis',(0.,1.,0.));
#443=DIRECTION('ref_axis',(-1.,0.,0.));
#444=DIRECTION('center_axis',(0.,1.,0.));
#445=DIRECTION('ref_axis',(-1.,0.,0.));
#446=DIRECTION('center_axis',(0.,1.,0.));
#447=DIRECTION('ref_axis',(-1.,0.,0.));
#448=DIRECTION('',(0.,-1.,0.));
#449=DIRECTION('center_axis',(0.,-1.,0.));
#450=DIRECTION('ref_axis',(-1.,0.,0.));
#451=DIRECTION('center_axis',(0.,1.,0.));
#452=DIRECTION('ref_axis',(-1.,0.,0.));
#453=DIRECTION('center_axis',(0.,1.,0.));
#454=DIRECTION('ref_axis',(-1.,0.,0.));
#455=DIRECTION('center_axis',(0.,1.,0.));
#456=DIRECTION('ref_axis',(-1.,0.,0.));
#457=DIRECTION('',(0.,-1.,0.));
#458=DIRECTION('center_axis',(0.,-1.,0.));
#459=DIRECTION('ref_axis',(-1.,0.,0.));
#460=DIRECTION('center_axis',(0.,1.,0.));
#461=DIRECTION('ref_axis',(-1.,0.,0.));
#462=DIRECTION('center_axis',(0.,1.,0.));
#463=DIRECTION('ref_axis',(0.,0.,1.));
#464=DIRECTION('',(1.,0.,0.));
#465=DIRECTION('',(0.,0.,-1.));
#466=DIRECTION('',(-1.,0.,0.));
#467=DIRECTION('',(0.,0.,1.));
#468=DIRECTION('center_axis',(0.,0.,-1.));
#469=DIRECTION('ref_axis',(-1.,0.,0.));
#470=DIRECTION('',(0.,1.,0.));
#471=DIRECTION('',(-1.,0.,0.));
#472=DIRECTION('',(0.,1.,0.));
#473=DIRECTION('center_axis',(1.,0.,0.));
#474=DIRECTION('ref_axis',(0.,0.,-1.));
#475=DIRECTION('',(0.,1.,0.));
#476=DIRECTION('',(0.,0.,-1.));
#477=DIRECTION('center_axis',(0.,1.,0.));
#478=DIRECTION('ref_axis',(0.,0.,1.));
#479=DIRECTION('',(1.,0.,0.));
#480=DIRECTION('',(0.,0.,-1.));
#481=DIRECTION('',(-1.,0.,0.));
#482=DIRECTION('',(0.,0.,1.));
#483=DIRECTION('center_axis',(0.,0.,-1.));
#484=DIRECTION('ref_axis',(-1.,0.,0.));
#485=DIRECTION('',(0.,1.,0.));
#486=DIRECTION('',(-1.,0.,0.));
#487=DIRECTION('',(0.,1.,0.));
#488=DIRECTION('center_axis',(1.,0.,0.));
#489=DIRECTION('ref_axis',(0.,0.,-1.));
#490=DIRECTION('',(0.,1.,0.));
#491=DIRECTION('',(0.,0.,-1.));
#492=DIRECTION('center_axis',(0.,1.,0.));
#493=DIRECTION('ref_axis',(0.,0.,1.));
#494=DIRECTION('',(8.74191357972564E-17,0.,-1.));
#495=DIRECTION('',(-1.,0.,0.));
#496=DIRECTION('',(0.,0.,1.));
#497=DIRECTION('',(1.,0.,0.));
#498=DIRECTION('center_axis',(-1.,0.,0.));
#499=DIRECTION('ref_axis',(0.,0.,1.));
#500=DIRECTION('',(0.,1.,0.));
#501=DIRECTION('',(0.,0.,1.));
#502=DIRECTION('',(0.,1.,0.));
#503=DIRECTION('center_axis',(0.,0.,-1.));
#504=DIRECTION('ref_axis',(-1.,0.,0.));
#505=DIRECTION('',(0.,1.,0.));
#506=DIRECTION('',(-1.,0.,0.));
#507=DIRECTION('center_axis',(-1.,0.,0.));
#508=DIRECTION('ref_axis',(0.,0.,1.));
#509=DIRECTION('',(0.,0.,1.));
#510=DIRECTION('',(0.,1.,0.));
#511=DIRECTION('center_axis',(0.,0.,1.));
#512=DIRECTION('ref_axis',(1.,0.,0.));
#513=DIRECTION('',(1.,0.,0.));
#514=DIRECTION('center_axis',(-1.,0.,0.));
#515=DIRECTION('ref_axis',(0.,0.,1.));
#516=DIRECTION('',(0.,0.,1.));
#517=DIRECTION('',(0.,1.,0.));
#518=DIRECTION('center_axis',(0.,0.,1.));
#519=DIRECTION('ref_axis',(1.,0.,0.));
#520=DIRECTION('',(1.,0.,0.));
#521=DIRECTION('center_axis',(0.,0.,1.));
#522=DIRECTION('ref_axis',(1.,0.,0.));
#523=DIRECTION('',(1.,0.,0.));
#524=DIRECTION('',(0.,1.,0.));
#525=DIRECTION('center_axis',(1.,0.,8.74191357972564E-17));
#526=DIRECTION('ref_axis',(8.74191357972564E-17,0.,-1.));
#527=DIRECTION('',(8.74191357972564E-17,0.,-1.));
#528=DIRECTION('center_axis',(0.,1.,0.));
#529=DIRECTION('ref_axis',(1.,0.,0.));
#530=DIRECTION('center_axis',(0.,1.,0.));
#531=DIRECTION('ref_axis',(1.,0.,0.));
#532=DIRECTION('',(0.,-1.,0.));
#533=DIRECTION('center_axis',(0.,1.,0.));
#534=DIRECTION('ref_axis',(1.,0.,0.));
#535=DIRECTION('center_axis',(0.,1.,0.));
#536=DIRECTION('ref_axis',(1.,0.,0.));
#537=DIRECTION('center_axis',(0.,1.,0.));
#538=DIRECTION('ref_axis',(1.,0.,0.));
#539=CARTESIAN_POINT('',(0.,0.,0.));
#540=CARTESIAN_POINT('Origin',(5.19615242270663,3.,1.09799953806401));
#541=CARTESIAN_POINT('',(7.54615242270663,25.,1.09799953806401));
#542=CARTESIAN_POINT('Origin',(5.19615242270663,25.,1.09799953806401));
#543=CARTESIAN_POINT('',(7.54615242270663,3.,1.09799953806401));
#544=CARTESIAN_POINT('',(7.54615242270663,3.,1.09799953806401));
#545=CARTESIAN_POINT('Origin',(5.19615242270663,3.,1.09799953806401));
#546=CARTESIAN_POINT('Origin',(5.19615242270663,25.,1.09799953806401));
#547=CARTESIAN_POINT('Origin',(-5.19615242270663,3.,1.097999538064));
#548=CARTESIAN_POINT('',(-2.84615242270663,25.,1.097999538064));
#549=CARTESIAN_POINT('Origin',(-5.19615242270663,25.,1.097999538064));
#550=CARTESIAN_POINT('',(-2.84615242270663,3.,1.097999538064));
#551=CARTESIAN_POINT('',(-2.84615242270663,3.,1.097999538064));
#552=CARTESIAN_POINT('Origin',(-5.19615242270663,3.,1.097999538064));
#553=CARTESIAN_POINT('Origin',(-5.19615242270663,25.,1.097999538064));
#554=CARTESIAN_POINT('Origin',(-6.50935947359562E-34,3.,-7.902000461936));
#555=CARTESIAN_POINT('',(2.35,25.,-7.902000461936));
#556=CARTESIAN_POINT('Origin',(-6.50935947359562E-34,25.,-7.902000461936));
#557=CARTESIAN_POINT('',(2.35,3.,-7.902000461936));
#558=CARTESIAN_POINT('',(2.35,3.,-7.902000461936));
#559=CARTESIAN_POINT('Origin',(-6.50935947359562E-34,3.,-7.902000461936));
#560=CARTESIAN_POINT('Origin',(0.,25.,-7.902000461936));
#561=CARTESIAN_POINT('Origin',(-25.2,1.5,12.3));
#562=CARTESIAN_POINT('',(-37.9,1.5,-0.4));
#563=CARTESIAN_POINT('',(-12.5,1.5,-0.4));
#564=CARTESIAN_POINT('',(-31.55,1.5,-0.4));
#565=CARTESIAN_POINT('',(-37.9,1.5,25.));
#566=CARTESIAN_POINT('',(-37.9,1.5,18.65));
#567=CARTESIAN_POINT('',(-12.5,1.5,25.));
#568=CARTESIAN_POINT('',(-18.85,1.5,25.));
#569=CARTESIAN_POINT('',(-12.5,1.5,5.95));
#570=CARTESIAN_POINT('Origin',(-12.5,0.,25.));
#571=CARTESIAN_POINT('',(-37.9,3.,25.));
#572=CARTESIAN_POINT('',(-37.9,0.,25.));
#573=CARTESIAN_POINT('',(-12.5,3.,25.));
#574=CARTESIAN_POINT('',(-12.5,3.,25.));
#575=CARTESIAN_POINT('',(-12.5,0.,25.));
#576=CARTESIAN_POINT('Origin',(-37.9,0.,25.));
#577=CARTESIAN_POINT('',(-37.9,3.,-0.4));
#578=CARTESIAN_POINT('',(-37.9,0.,-0.4));
#579=CARTESIAN_POINT('',(-37.9,3.,25.));
#580=CARTESIAN_POINT('Origin',(4.44089209850063E-15,1.5,-31.347));
#581=CARTESIAN_POINT('',(-12.7,1.5,-44.047));
#582=CARTESIAN_POINT('',(12.7,1.5,-44.047));
#583=CARTESIAN_POINT('',(-6.35,1.5,-44.047));
#584=CARTESIAN_POINT('',(-12.7,1.5,-18.647));
#585=CARTESIAN_POINT('',(-12.7,1.5,-24.997));
#586=CARTESIAN_POINT('',(12.7,1.5,-18.647));
#587=CARTESIAN_POINT('',(6.35,1.5,-18.647));
#588=CARTESIAN_POINT('',(12.7,1.5,-37.697));
#589=CARTESIAN_POINT('Origin',(12.7,0.,-18.647));
#590=CARTESIAN_POINT('',(-12.7,3.,-18.647));
#591=CARTESIAN_POINT('',(-12.7,0.,-18.647));
#592=CARTESIAN_POINT('',(12.7,3.,-18.647));
#593=CARTESIAN_POINT('',(12.7,3.,-18.647));
#594=CARTESIAN_POINT('',(12.7,0.,-18.647));
#595=CARTESIAN_POINT('Origin',(-12.7,0.,-18.647));
#596=CARTESIAN_POINT('',(-12.7,3.,-44.047));
#597=CARTESIAN_POINT('',(-12.7,0.,-44.047));
#598=CARTESIAN_POINT('',(-12.7,3.,-18.647));
#599=CARTESIAN_POINT('Origin',(25.2,1.5,12.3));
#600=CARTESIAN_POINT('',(12.5,1.5,25.));
#601=CARTESIAN_POINT('',(12.5,1.5,-0.4));
#602=CARTESIAN_POINT('',(12.5,1.5,18.65));
#603=CARTESIAN_POINT('',(37.9,1.5,25.));
#604=CARTESIAN_POINT('',(31.55,1.5,25.));
#605=CARTESIAN_POINT('',(37.9,1.5,-0.4));
#606=CARTESIAN_POINT('',(37.9,1.5,5.95));
#607=CARTESIAN_POINT('',(18.85,1.5,-0.4));
#608=CARTESIAN_POINT('Origin',(37.9,0.,-0.4));
#609=CARTESIAN_POINT('',(37.9,3.,25.));
#610=CARTESIAN_POINT('',(37.9,0.,25.));
#611=CARTESIAN_POINT('',(37.9,3.,-0.4));
#612=CARTESIAN_POINT('',(37.9,3.,-0.4));
#613=CARTESIAN_POINT('',(37.9,0.,-0.4));
#614=CARTESIAN_POINT('Origin',(37.9,0.,25.));
#615=CARTESIAN_POINT('',(12.5,3.,25.));
#616=CARTESIAN_POINT('',(12.5,0.,25.));
#617=CARTESIAN_POINT('',(37.9,3.,25.));
#618=CARTESIAN_POINT('Origin',(-12.5,0.,-0.4));
#619=CARTESIAN_POINT('',(-12.5,3.,-0.4));
#620=CARTESIAN_POINT('',(-12.5,3.,-0.4));
#621=CARTESIAN_POINT('',(-12.5,0.,-0.4));
#622=CARTESIAN_POINT('Origin',(-37.9,0.,-0.4));
#623=CARTESIAN_POINT('',(-37.9,3.,-0.4));
#624=CARTESIAN_POINT('Origin',(12.7,0.,-44.047));
#625=CARTESIAN_POINT('',(12.7,3.,-44.047));
#626=CARTESIAN_POINT('',(12.7,3.,-44.047));
#627=CARTESIAN_POINT('',(12.7,0.,-44.047));
#628=CARTESIAN_POINT('Origin',(-12.7,0.,-44.047));
#629=CARTESIAN_POINT('',(-12.7,3.,-44.047));
#630=CARTESIAN_POINT('Origin',(12.5,0.,-0.4));
#631=CARTESIAN_POINT('',(12.5,3.,-0.4));
#632=CARTESIAN_POINT('',(12.5,3.,-0.4));
#633=CARTESIAN_POINT('',(12.5,0.,-0.4));
#634=CARTESIAN_POINT('Origin',(12.5,0.,25.));
#635=CARTESIAN_POINT('',(12.5,3.,25.));
#636=CARTESIAN_POINT('Origin',(0.,0.,0.));
#637=CARTESIAN_POINT('',(-48.,3.,4.44089209850063E-15));
#638=CARTESIAN_POINT('Origin',(0.,3.,0.));
#639=CARTESIAN_POINT('',(-48.,0.,5.8783046359073E-15));
#640=CARTESIAN_POINT('',(-48.,0.,5.8783046359073E-15));
#641=CARTESIAN_POINT('Origin',(0.,0.,0.));
#642=CARTESIAN_POINT('Origin',(0.,3.,0.));
#643=CARTESIAN_POINT('Origin',(0.,0.,0.));
#644=UNCERTAINTY_MEASURE_WITH_UNIT(LENGTH_MEASURE(0.01),#648,
'DISTANCE_ACCURACY_VALUE',
'Maximum model space distance between geometric entities at asserted c
onnectivities');
#645=UNCERTAINTY_MEASURE_WITH_UNIT(LENGTH_MEASURE(0.01),#648,
'DISTANCE_ACCURACY_VALUE',
'Maximum model space distance between geometric entities at asserted c
onnectivities');
#646=(
GEOMETRIC_REPRESENTATION_CONTEXT(3)
GLOBAL_UNCERTAINTY_ASSIGNED_CONTEXT((#644))
GLOBAL_UNIT_ASSIGNED_CONTEXT((#648,#650,#651))
REPRESENTATION_CONTEXT('','3D')
);
#647=(
GEOMETRIC_REPRESENTATION_CONTEXT(3)
GLOBAL_UNCERTAINTY_ASSIGNED_CONTEXT((#645))
GLOBAL_UNIT_ASSIGNED_CONTEXT((#648,#650,#651))
REPRESENTATION_CONTEXT('','3D')
);
#648=(
LENGTH_UNIT()
NAMED_UNIT(*)
SI_UNIT(.MILLI.,.METRE.)
);
#649=(
LENGTH_UNIT()
NAMED_UNIT(*)
SI_UNIT($,.METRE.)
);
#650=(
NAMED_UNIT(*)
PLANE_ANGLE_UNIT()
SI_UNIT($,.RADIAN.)
);
#651=(
NAMED_UNIT(*)
SI_UNIT($,.STERADIAN.)
SOLID_ANGLE_UNIT()
);
#652=SHAPE_DEFINITION_REPRESENTATION(#653,#654);
#653=PRODUCT_DEFINITION_SHAPE('',$,#656);
#654=SHAPE_REPRESENTATION('',(#400),#646);
#655=PRODUCT_DEFINITION_CONTEXT('part definition',#660,'design');
#656=PRODUCT_DEFINITION('base','base',#657,#655);
#657=PRODUCT_DEFINITION_FORMATION('',$,#662);
#658=PRODUCT_RELATED_PRODUCT_CATEGORY('base','base',(#662));
#659=APPLICATION_PROTOCOL_DEFINITION('international standard',
'automotive_design',2009,#660);
#660=APPLICATION_CONTEXT(
'Core Data for Automotive Mechanical Design Process');
#661=PRODUCT_CONTEXT('part definition',#660,'mechanical');
#662=PRODUCT('base','base',$,(#661));
#663=PRESENTATION_STYLE_ASSIGNMENT((#664));
#664=SURFACE_STYLE_USAGE(.BOTH.,#665);
#665=SURFACE_SIDE_STYLE('',(#666));
#666=SURFACE_STYLE_FILL_AREA(#667);
#667=FILL_AREA_STYLE('Steel - Satin',(#668));
#668=FILL_AREA_STYLE_COLOUR('Steel - Satin',#669);
#669=COLOUR_RGB('Steel - Satin',0.627450980392157,0.627450980392157,0.627450980392157);
ENDSEC;
END-ISO-10303-21;
